<?xml version="1.0" standalone="no"?>
<!DOCTYPE svg PUBLIC "-//W3C//DTD SVG 20010904//EN"
 "http://www.w3.org/TR/2001/REC-SVG-20010904/DTD/svg10.dtd">
<svg version="1.0" xmlns="http://www.w3.org/2000/svg"
 width="700.000000pt" height="700.000000pt" viewBox="0 0 700.000000 700.000000"
 preserveAspectRatio="xMidYMid meet">
<metadata>
Created by potrace 1.14, written by Peter Selinger 2001-2017
</metadata>
<g transform="translate(0.000000,700.000000) scale(0.100000,-0.100000)"
fill="#000000" stroke="none">
<path d="M3337 6994 c-1 -2 -29 -4 -60 -5 -31 -1 -55 -5 -53 -8 2 -3 -15 -5
-39 -5 -38 1 -73 -3 -170 -20 -16 -2 -48 -7 -70 -11 -22 -3 -78 -14 -125 -25
-47 -11 -96 -22 -110 -25 -14 -3 -34 -9 -45 -12 -11 -4 -22 -8 -25 -8 -32 -8
-112 -32 -185 -57 -82 -28 -138 -50 -250 -96 -61 -26 -349 -172 -355 -181 -3
-4 -12 -10 -22 -14 -48 -18 -269 -171 -418 -292 -135 -108 -400 -369 -400
-392 0 -7 -4 -13 -9 -13 -9 0 -45 -41 -126 -145 -16 -22 -29 -42 -27 -47 1 -4
-2 -8 -8 -8 -11 0 -76 -92 -72 -102 1 -5 -2 -8 -7 -8 -8 0 -47 -56 -60 -85 -2
-5 -8 -14 -13 -20 -25 -29 -212 -370 -207 -377 1 -2 -9 -25 -21 -53 -42 -92
-79 -185 -73 -185 3 0 1 -6 -4 -12 -16 -20 -75 -203 -71 -218 1 -3 -4 -14 -10
-26 -6 -11 -13 -33 -16 -48 -3 -14 -8 -35 -11 -46 -6 -20 -1 -20 382 -20 l388
0 24 83 c40 135 81 243 154 397 22 47 46 99 54 115 7 17 23 46 34 65 12 19 31
53 42 75 12 22 32 54 44 71 13 17 23 36 23 42 0 7 4 12 8 12 4 0 16 15 27 33
29 48 118 170 135 184 8 7 11 13 5 13 -5 0 1 7 13 16 14 9 21 22 18 31 -3 8
-2 12 3 9 4 -3 41 31 82 76 72 80 224 231 277 275 26 22 73 61 119 100 110 91
335 231 518 322 135 67 328 151 348 151 3 0 18 5 34 12 15 6 33 12 38 14 35
11 204 56 225 60 14 3 33 7 42 10 10 3 28 7 40 10 13 2 34 6 48 9 48 11 109
21 180 30 152 19 239 23 445 20 215 -3 275 -7 350 -19 83 -14 133 -20 167 -21
20 0 34 -2 32 -5 -5 -4 186 -51 221 -54 11 0 22 -3 25 -6 8 -9 293 -103 312
-104 9 0 15 -3 12 -7 -2 -4 17 -15 43 -25 27 -10 67 -29 91 -41 23 -12 42 -20
42 -16 0 3 8 0 18 -8 9 -8 42 -28 72 -43 105 -55 349 -207 386 -241 6 -5 26
-21 44 -35 19 -14 54 -42 79 -64 25 -21 60 -50 76 -63 17 -14 61 -55 100 -92
38 -36 62 -57 54 -46 -9 11 -27 33 -40 50 -31 39 -305 313 -344 344 -16 13
-46 38 -66 55 -55 48 -116 96 -152 120 -17 12 -55 39 -83 59 -28 20 -54 34
-57 30 -4 -3 -7 -2 -7 4 0 19 -175 122 -369 218 -232 115 -545 224 -776 271
-77 15 -187 34 -225 39 -68 7 -131 15 -170 21 -40 6 -517 14 -523 8z"/>
<path d="M3927 6354 c-1 -1 -42 -4 -92 -8 -49 -3 -101 -8 -115 -10 -14 -3 -43
-7 -64 -11 -21 -3 -48 -7 -60 -10 -12 -2 -37 -7 -56 -10 -19 -3 -53 -10 -75
-15 -22 -6 -48 -12 -57 -15 -99 -23 -280 -82 -345 -111 -17 -8 -34 -14 -37
-14 -27 0 -377 -184 -384 -202 -2 -4 -9 -8 -15 -8 -11 0 -81 -45 -105 -67 -7
-7 -16 -13 -20 -13 -4 0 -20 -11 -36 -25 -16 -14 -32 -25 -35 -25 -6 0 -18
-10 -169 -140 -81 -70 -271 -262 -227 -230 11 8 22 17 25 20 24 24 172 138
240 185 47 33 87 62 90 65 3 3 18 11 33 18 17 7 25 17 21 24 -4 7 -3 8 4 4 7
-4 38 8 69 26 32 19 94 51 138 72 44 21 88 43 98 48 87 44 375 140 487 162 14
3 57 12 95 20 39 8 97 18 130 22 33 3 63 8 66 10 25 14 392 22 534 10 171 -13
242 -24 404 -61 40 -9 78 -18 85 -19 17 -3 129 -36 146 -43 8 -3 21 -7 28 -9
17 -3 165 -61 212 -82 19 -9 37 -16 40 -17 8 0 189 -94 235 -121 22 -12 47
-26 55 -30 25 -13 204 -135 226 -155 11 -11 24 -19 28 -19 4 0 13 -6 20 -12 7
-7 40 -35 72 -62 68 -57 296 -284 337 -336 15 -19 47 -60 71 -90 56 -71 186
-266 186 -280 0 -5 3 -10 8 -10 4 0 12 -10 18 -23 6 -12 34 -67 61 -122 28
-55 61 -124 74 -152 l24 -53 146 0 146 0 -24 68 c-14 37 -27 77 -30 90 -3 12
-9 25 -14 28 -5 3 -9 12 -9 20 0 33 -120 273 -202 404 -32 52 -64 104 -71 115
-72 116 -317 404 -339 397 -4 -1 -7 2 -6 7 5 16 -284 271 -307 271 -4 0 -13 6
-20 13 -33 28 -45 37 -45 32 0 -3 -10 4 -22 15 -46 42 -252 158 -413 231 -249
113 -556 195 -845 225 -59 6 -407 13 -413 8z"/>
<path d="M5175 5459 c-41 -7 -106 -15 -205 -26 -30 -3 -58 -10 -61 -16 -4 -5
-10 -35 -14 -66 -4 -31 -8 -63 -10 -71 -2 -8 -6 -35 -9 -60 -4 -25 -11 -70
-16 -100 -15 -89 -18 -104 -55 -345 -20 -126 -38 -237 -40 -245 -2 -8 -7 -37
-10 -65 -3 -27 -10 -75 -15 -105 -12 -68 -56 -338 -64 -401 -4 -25 -9 -59 -12
-75 -9 -49 -102 -636 -108 -679 -3 -22 -8 -67 -11 -100 -17 -190 -34 -327 -39
-333 -6 -5 -7 -2 -143 333 -94 233 -168 399 -333 750 -28 61 -62 133 -75 160
-13 28 -42 91 -65 140 -23 50 -57 122 -75 160 -18 39 -52 111 -75 160 -23 50
-70 151 -105 225 -34 74 -84 180 -110 235 -26 55 -75 161 -110 235 -35 74 -76
162 -91 195 l-29 60 -202 0 c-111 0 -204 -2 -206 -5 -4 -4 -16 -73 -42 -255
-3 -22 -10 -62 -16 -90 -5 -27 -11 -70 -14 -95 -3 -25 -7 -56 -10 -70 -2 -14
-7 -38 -9 -55 -3 -16 -12 -70 -20 -120 -8 -49 -17 -112 -21 -138 -4 -27 -8
-58 -11 -70 -2 -12 -6 -39 -9 -62 -3 -22 -8 -47 -10 -55 -2 -8 -6 -35 -9 -60
-3 -25 -16 -112 -30 -195 -13 -82 -27 -168 -30 -190 -3 -22 -10 -67 -16 -100
-5 -33 -13 -80 -16 -105 -3 -25 -7 -52 -9 -60 -3 -8 -23 -135 -45 -281 -22
-147 -43 -277 -45 -290 -3 -13 -12 -71 -20 -129 -17 -115 -43 -281 -50 -320
-3 -14 -12 -70 -20 -125 -9 -55 -24 -151 -34 -212 -16 -102 -16 -113 -2 -114
111 -7 337 -2 346 8 9 9 32 125 40 208 1 6 5 30 9 55 4 25 10 59 12 75 2 17 6
41 9 55 2 14 7 43 10 65 3 22 10 67 15 100 5 33 12 78 15 100 4 22 8 51 10 65
5 28 43 278 50 325 2 17 7 48 10 70 3 22 8 47 10 55 2 8 7 35 10 60 3 25 13
88 21 140 8 52 17 113 20 135 3 22 12 78 19 125 8 47 16 101 19 120 3 19 21
139 41 265 20 127 44 286 55 355 33 214 43 270 49 270 3 0 42 -87 85 -193 44
-105 113 -264 154 -352 41 -88 87 -187 102 -220 15 -33 74 -159 130 -280 122
-261 147 -315 233 -500 36 -77 86 -184 111 -238 25 -55 46 -100 46 -102 0 -2
31 -68 68 -147 38 -78 81 -172 98 -207 16 -36 66 -144 111 -240 l81 -175 180
1 c99 0 187 3 195 6 9 3 16 14 15 24 0 16 5 53 17 123 3 14 7 39 9 55 3 17 14
89 25 160 11 72 23 148 26 170 3 22 16 108 30 190 13 83 26 170 30 195 3 25 8
52 10 60 2 8 7 35 10 60 3 25 8 52 10 60 2 8 6 35 9 60 3 25 8 54 10 65 2 11
7 42 10 68 4 27 9 57 11 67 4 21 12 71 20 125 3 22 12 78 20 125 8 47 17 108
20 135 4 28 8 57 10 65 2 8 18 105 35 215 58 371 78 499 110 700 17 110 33
211 35 225 2 14 13 82 24 153 12 70 21 130 21 133 0 6 -49 3 -105 -7z"/>
<path d="M190 3129 c0 -6 4 -18 9 -28 6 -10 11 -29 13 -44 2 -14 7 -29 11 -33
4 -4 7 -18 7 -30 0 -13 5 -26 10 -29 6 -3 10 -14 10 -23 0 -40 140 -383 153
-375 6 3 7 1 3 -5 -7 -11 122 -272 150 -303 8 -8 14 -19 14 -23 0 -12 111
-180 121 -184 5 -2 9 -8 9 -13 0 -13 96 -143 184 -249 96 -116 283 -306 386
-393 47 -40 91 -78 99 -85 33 -31 166 -127 301 -216 83 -55 326 -197 333 -194
1 0 40 -17 87 -40 80 -37 150 -66 280 -114 30 -11 64 -24 75 -29 41 -17 125
-38 125 -31 0 4 4 2 8 -4 6 -10 170 -55 250 -70 12 -2 34 -6 50 -9 171 -34
176 -34 707 -31 292 1 546 5 565 9 19 4 46 10 60 13 14 3 36 8 50 10 38 7 193
44 210 51 8 3 24 8 34 10 34 6 191 55 201 62 6 4 29 13 53 20 23 7 64 21 90
33 26 12 52 22 58 23 33 8 326 153 335 167 3 6 8 8 10 7 11 -8 298 173 307
193 2 5 8 8 13 8 21 0 160 111 153 122 -4 6 -3 8 3 5 9 -6 76 39 93 61 3 4 21
20 40 36 71 57 272 260 350 352 54 64 42 58 -43 -23 -53 -50 -134 -121 -179
-158 -46 -36 -94 -74 -106 -85 -13 -11 -27 -20 -31 -20 -3 0 -22 -13 -41 -28
-91 -73 -364 -228 -535 -303 -112 -49 -295 -114 -387 -138 -4 -1 -22 -7 -40
-12 -18 -6 -44 -12 -58 -15 -14 -3 -43 -10 -65 -16 -47 -13 -50 -14 -95 -22
-19 -3 -48 -8 -65 -12 -42 -8 -71 -12 -140 -20 -33 -3 -62 -7 -66 -9 -10 -7
-244 -19 -364 -19 -107 1 -266 9 -335 19 -14 2 -50 6 -80 9 -74 9 -246 43
-345 68 -44 11 -86 21 -92 21 -7 0 -13 4 -13 9 0 4 -8 8 -18 8 -11 0 -64 15
-119 34 -400 138 -769 354 -1082 634 -104 94 -164 155 -295 302 -12 14 -37 45
-56 70 -19 25 -37 47 -40 50 -25 25 -188 262 -216 315 -6 11 -21 38 -34 60
-100 176 -201 408 -255 585 l-22 75 -402 2 c-276 2 -401 -1 -401 -8z"/>
<path d="M6470 3131 c0 -12 -92 -202 -126 -261 -57 -97 -117 -195 -124 -200
-4 -3 -13 -15 -19 -28 -7 -13 -19 -31 -26 -40 -8 -9 -52 -65 -99 -123 -115
-144 -313 -342 -431 -431 -16 -12 -32 -25 -35 -28 -16 -19 -267 -190 -279
-190 -4 0 -17 -9 -29 -20 -12 -12 -22 -18 -22 -15 0 4 -15 -2 -32 -13 -113
-70 -374 -181 -533 -227 -48 -14 -90 -27 -94 -29 -4 -3 -18 -7 -32 -10 -13 -2
-58 -12 -99 -21 -41 -9 -91 -18 -110 -21 -19 -3 -38 -8 -41 -10 -3 -2 -35 -6
-70 -9 -35 -4 -75 -9 -89 -12 -45 -9 -483 -11 -565 -2 -76 8 -206 26 -250 35
-11 2 -33 7 -48 9 -15 3 -56 12 -90 21 -34 9 -73 18 -87 21 -14 2 -32 7 -40
10 -18 8 -12 6 -85 27 -98 30 -302 115 -420 176 -138 72 -153 80 -190 105 -17
11 -38 25 -47 30 -80 48 -325 236 -357 274 -7 9 -12 11 -10 4 10 -32 241 -251
376 -355 151 -117 183 -138 341 -230 149 -87 466 -224 558 -241 10 -2 31 -9
45 -15 14 -5 39 -13 55 -15 16 -3 45 -11 64 -16 43 -13 230 -50 285 -56 146
-16 202 -19 385 -20 206 0 293 5 418 26 37 6 76 12 87 14 86 13 107 18 205 45
41 11 83 23 92 25 54 12 128 40 128 47 0 5 4 7 9 3 13 -8 193 66 326 133 111
56 256 142 330 195 22 15 55 37 73 49 17 11 32 24 32 29 0 5 6 9 13 9 6 0 30
16 52 36 22 19 65 56 95 82 87 74 246 237 313 322 34 42 73 90 85 106 13 16
40 54 60 84 21 30 43 61 50 68 6 7 12 19 12 27 0 7 4 15 9 17 4 2 30 41 56 88
26 47 51 92 56 100 40 65 179 391 179 420 0 6 -63 10 -155 10 -86 0 -155 -4
-155 -9z m91 -138 c13 -16 12 -17 -3 -4 -10 7 -18 15 -18 17 0 8 8 3 21 -13z"/>
</g>
</svg>
