<svg xmlns="http://www.w3.org/2000/svg" xmlns:xlink="http://www.w3.org/1999/xlink" width="500" zoomAndPan="magnify" viewBox="0 0 375 374.999991" height="500" preserveAspectRatio="xMidYMid meet" version="1.0"><defs><g/><clipPath id="74ed924b79"><path d="M 0 3.828125 L 341 3.828125 L 341 146.328125 L 0 146.328125 Z M 0 3.828125 " clip-rule="nonzero"/></clipPath><clipPath id="dcb2fd12b9"><path d="M 102 40 L 375 40 L 375 146.328125 L 102 146.328125 Z M 102 40 " clip-rule="nonzero"/></clipPath><clipPath id="61f546cde0"><path d="M 0 220.941406 L 345 220.941406 L 345 367.566406 L 0 367.566406 Z M 0 220.941406 " clip-rule="nonzero"/></clipPath><clipPath id="a2ac1bfa63"><path d="M 100 220.941406 L 375 220.941406 L 375 331 L 100 331 Z M 100 220.941406 " clip-rule="nonzero"/></clipPath></defs><g clip-path="url(#74ed924b79)"><path fill="#4a6cf7" d="M 215.425781 366.257812 C 120.429688 366.257812 43.417969 289.28125 43.417969 194.328125 C 43.417969 99.375 120.429688 22.398438 215.425781 22.398438 C 264.621094 22.398438 308.980469 43.042969 340.332031 76.128906 C 305.417969 32.082031 251.4375 3.820312 190.847656 3.820312 C 85.589844 3.820312 0.253906 89.113281 0.253906 194.328125 C 0.253906 299.542969 85.589844 384.835938 190.847656 384.835938 C 251.4375 384.835938 305.417969 356.574219 340.332031 312.53125 C 308.980469 345.613281 264.621094 366.257812 215.425781 366.257812 " fill-opacity="1" fill-rule="nonzero"/></g><g clip-path="url(#dcb2fd12b9)"><path fill="#393536" d="M 220.445312 40.054688 C 173.382812 40.054688 131.246094 61.105469 102.933594 94.304688 C 130.527344 68.496094 167.601562 52.695312 208.371094 52.695312 C 293.621094 52.695312 362.730469 121.765625 362.730469 206.96875 C 362.730469 245.128906 348.859375 280.042969 325.898438 306.976562 C 355.988281 278.824219 374.796875 238.773438 374.796875 194.328125 C 374.796875 109.121094 305.695312 40.054688 220.445312 40.054688 " fill-opacity="1" fill-rule="nonzero"/></g><g clip-path="url(#61f546cde0)"><path fill="#4a6cf7" d="M 216.054688 -5.5625 C 118.394531 -5.5625 39.226562 73.6875 39.226562 171.441406 C 39.226562 269.199219 118.394531 348.449219 216.054688 348.449219 C 266.628906 348.449219 312.230469 327.195312 344.460938 293.132812 C 308.566406 338.480469 253.074219 367.574219 190.789062 367.574219 C 82.578125 367.574219 -5.148438 279.761719 -5.148438 171.441406 C -5.148438 63.125 82.578125 -24.6875 190.789062 -24.6875 C 253.074219 -24.6875 308.566406 4.40625 344.460938 49.753906 C 312.230469 15.691406 266.628906 -5.5625 216.054688 -5.5625 " fill-opacity="1" fill-rule="nonzero"/></g><g clip-path="url(#a2ac1bfa63)"><path fill="#393536" d="M 221.214844 330.273438 C 172.832031 330.273438 129.515625 308.601562 100.410156 274.417969 C 128.773438 300.988281 166.890625 317.257812 208.800781 317.257812 C 296.4375 317.257812 367.484375 246.152344 367.484375 158.429688 C 367.484375 119.140625 353.226562 83.195312 329.621094 55.46875 C 360.554688 84.453125 379.890625 125.6875 379.890625 171.441406 C 379.890625 259.167969 308.851562 330.273438 221.214844 330.273438 " fill-opacity="1" fill-rule="nonzero"/></g><g fill="#000000" fill-opacity="1"><g transform="translate(107.005932, 272.370568)"><g><path d="M 17.71875 0 L 38.390625 0 L 55.839844 -113.289062 L 61.476562 -149.53125 L 62.011719 -149.53125 L 72.214844 -125.367188 L 130.46875 0 L 151.945312 0 L 180.671875 -182.550781 L 159.730469 -179.863281 L 139.863281 -54.765625 L 137.449219 -30.605469 L 136.644531 -30.605469 L 122.953125 -64.429688 L 68.992188 -179.863281 L 45.90625 -179.863281 Z M 17.71875 0 "/></g></g></g></svg>