<svg xmlns="http://www.w3.org/2000/svg" xmlns:xlink="http://www.w3.org/1999/xlink" width="500" zoomAndPan="magnify" viewBox="0 0 375 374.999991" height="500" preserveAspectRatio="xMidYMid meet" version="1.0"><defs><g/><clipPath id="600485a597"><path d="M 98.402344 94.527344 L 260 94.527344 L 260 162.027344 L 98.402344 162.027344 Z M 98.402344 94.527344 " clip-rule="nonzero"/></clipPath><clipPath id="e29d71d2e7"><path d="M 146 111 L 275.402344 111 L 275.402344 162.027344 L 146 162.027344 Z M 146 111 " clip-rule="nonzero"/></clipPath><clipPath id="92f35fd655"><path d="M 99.410156 213.128906 L 261 213.128906 L 261 280.464844 L 99.410156 280.464844 Z M 99.410156 213.128906 " clip-rule="nonzero"/></clipPath><clipPath id="e323fce48d"><path d="M 147 213.128906 L 276.410156 213.128906 L 276.410156 264 L 147 264 Z M 147 213.128906 " clip-rule="nonzero"/></clipPath></defs><g clip-path="url(#600485a597)"><path fill="#4a6cf7" d="M 200.085938 265.753906 C 155.242188 265.753906 118.894531 229.386719 118.894531 184.527344 C 118.894531 139.667969 155.242188 103.300781 200.085938 103.300781 C 223.304688 103.300781 244.242188 113.054688 259.042969 128.683594 C 242.5625 107.875 217.082031 94.523438 188.484375 94.523438 C 138.796875 94.523438 98.519531 134.820312 98.519531 184.527344 C 98.519531 234.234375 138.796875 274.53125 188.484375 274.53125 C 217.082031 274.53125 242.5625 261.179688 259.042969 240.371094 C 244.242188 256 223.304688 265.753906 200.085938 265.753906 " fill-opacity="1" fill-rule="nonzero"/></g><g clip-path="url(#e29d71d2e7)"><path fill="#393536" d="M 202.453125 111.640625 C 180.238281 111.640625 160.347656 121.589844 146.988281 137.273438 C 160.011719 125.082031 177.511719 117.613281 196.753906 117.613281 C 236.992188 117.613281 269.613281 150.246094 269.613281 190.5 C 269.613281 208.527344 263.066406 225.023438 252.226562 237.746094 C 266.433594 224.449219 275.308594 205.527344 275.308594 184.527344 C 275.308594 144.273438 242.691406 111.640625 202.453125 111.640625 " fill-opacity="1" fill-rule="nonzero"/></g><g clip-path="url(#92f35fd655)"><path fill="#4a6cf7" d="M 201.09375 109.238281 C 156.25 109.238281 119.902344 145.605469 119.902344 190.464844 C 119.902344 235.324219 156.25 271.691406 201.09375 271.691406 C 224.3125 271.691406 245.25 261.9375 260.050781 246.308594 C 243.570312 267.117188 218.089844 280.46875 189.492188 280.46875 C 139.804688 280.46875 99.527344 240.171875 99.527344 190.464844 C 99.527344 140.757812 139.804688 100.460938 189.492188 100.460938 C 218.089844 100.460938 243.570312 113.8125 260.050781 134.621094 C 245.25 118.992188 224.3125 109.238281 201.09375 109.238281 " fill-opacity="1" fill-rule="nonzero"/></g><g clip-path="url(#e323fce48d)"><path fill="#393536" d="M 203.460938 263.351562 C 181.246094 263.351562 161.355469 253.40625 147.996094 237.71875 C 161.019531 249.914062 178.519531 257.378906 197.761719 257.378906 C 238 257.378906 270.621094 224.746094 270.621094 184.492188 C 270.621094 166.464844 264.074219 149.96875 253.234375 137.246094 C 267.441406 150.546875 276.316406 169.46875 276.316406 190.464844 C 276.316406 230.71875 243.699219 263.351562 203.460938 263.351562 " fill-opacity="1" fill-rule="nonzero"/></g><g fill="#000000" fill-opacity="1"><g transform="translate(29.049079, 201.78707)"><g><path d="M 33.3125 -32.171875 L 33.3125 0 L 27.203125 0 L 11.171875 -19.53125 L 11.171875 0 L 3.8125 0 L 3.8125 -32.171875 L 9.96875 -32.171875 L 25.96875 -12.640625 L 25.96875 -32.171875 Z M 33.3125 -32.171875 "/></g></g></g><g fill="#000000" fill-opacity="1"><g transform="translate(66.863756, 201.78707)"><g><path d="M 19.390625 0.546875 C 16.054688 0.546875 13.046875 -0.171875 10.359375 -1.609375 C 7.679688 -3.046875 5.582031 -5.023438 4.0625 -7.546875 C 2.550781 -10.078125 1.796875 -12.921875 1.796875 -16.078125 C 1.796875 -19.234375 2.550781 -22.078125 4.0625 -24.609375 C 5.582031 -27.140625 7.679688 -29.125 10.359375 -30.5625 C 13.046875 -32 16.054688 -32.71875 19.390625 -32.71875 C 22.734375 -32.71875 25.734375 -32 28.390625 -30.5625 C 31.054688 -29.125 33.15625 -27.140625 34.6875 -24.609375 C 36.226562 -22.078125 37 -19.234375 37 -16.078125 C 37 -12.921875 36.226562 -10.078125 34.6875 -7.546875 C 33.15625 -5.023438 31.054688 -3.046875 28.390625 -1.609375 C 25.734375 -0.171875 22.734375 0.546875 19.390625 0.546875 Z M 19.390625 -5.796875 C 21.285156 -5.796875 23 -6.226562 24.53125 -7.09375 C 26.070312 -7.96875 27.273438 -9.1875 28.140625 -10.75 C 29.015625 -12.3125 29.453125 -14.085938 29.453125 -16.078125 C 29.453125 -18.078125 29.015625 -19.851562 28.140625 -21.40625 C 27.273438 -22.96875 26.070312 -24.1875 24.53125 -25.0625 C 23 -25.9375 21.285156 -26.375 19.390625 -26.375 C 17.492188 -26.375 15.78125 -25.9375 14.25 -25.0625 C 12.71875 -24.1875 11.515625 -22.96875 10.640625 -21.40625 C 9.765625 -19.851562 9.328125 -18.078125 9.328125 -16.078125 C 9.328125 -14.085938 9.765625 -12.3125 10.640625 -10.75 C 11.515625 -9.1875 12.71875 -7.96875 14.25 -7.09375 C 15.78125 -6.226562 17.492188 -5.796875 19.390625 -5.796875 Z M 19.390625 -5.796875 "/></g></g></g><g fill="#000000" fill-opacity="1"><g transform="translate(106.332524, 201.78707)"><g><path d="M 19.390625 0.546875 C 16.054688 0.546875 13.046875 -0.171875 10.359375 -1.609375 C 7.679688 -3.046875 5.582031 -5.023438 4.0625 -7.546875 C 2.550781 -10.078125 1.796875 -12.921875 1.796875 -16.078125 C 1.796875 -19.234375 2.550781 -22.078125 4.0625 -24.609375 C 5.582031 -27.140625 7.679688 -29.125 10.359375 -30.5625 C 13.046875 -32 16.054688 -32.71875 19.390625 -32.71875 C 22.734375 -32.71875 25.734375 -32 28.390625 -30.5625 C 31.054688 -29.125 33.15625 -27.140625 34.6875 -24.609375 C 36.226562 -22.078125 37 -19.234375 37 -16.078125 C 37 -12.921875 36.226562 -10.078125 34.6875 -7.546875 C 33.15625 -5.023438 31.054688 -3.046875 28.390625 -1.609375 C 25.734375 -0.171875 22.734375 0.546875 19.390625 0.546875 Z M 19.390625 -5.796875 C 21.285156 -5.796875 23 -6.226562 24.53125 -7.09375 C 26.070312 -7.96875 27.273438 -9.1875 28.140625 -10.75 C 29.015625 -12.3125 29.453125 -14.085938 29.453125 -16.078125 C 29.453125 -18.078125 29.015625 -19.851562 28.140625 -21.40625 C 27.273438 -22.96875 26.070312 -24.1875 24.53125 -25.0625 C 23 -25.9375 21.285156 -26.375 19.390625 -26.375 C 17.492188 -26.375 15.78125 -25.9375 14.25 -25.0625 C 12.71875 -24.1875 11.515625 -22.96875 10.640625 -21.40625 C 9.765625 -19.851562 9.328125 -18.078125 9.328125 -16.078125 C 9.328125 -14.085938 9.765625 -12.3125 10.640625 -10.75 C 11.515625 -9.1875 12.71875 -7.96875 14.25 -7.09375 C 15.78125 -6.226562 17.492188 -5.796875 19.390625 -5.796875 Z M 19.390625 -5.796875 "/></g></g></g><g fill="#000000" fill-opacity="1"><g transform="translate(145.801292, 201.78707)"><g><path d="M 24.3125 0 L 18.109375 -8.953125 L 11.265625 -8.953125 L 11.265625 0 L 3.8125 0 L 3.8125 -32.171875 L 17.734375 -32.171875 C 20.585938 -32.171875 23.0625 -31.691406 25.15625 -30.734375 C 27.257812 -29.785156 28.875 -28.4375 30 -26.6875 C 31.132812 -24.945312 31.703125 -22.882812 31.703125 -20.5 C 31.703125 -18.101562 31.128906 -16.039062 29.984375 -14.3125 C 28.835938 -12.582031 27.207031 -11.257812 25.09375 -10.34375 L 32.3125 0 Z M 24.171875 -20.5 C 24.171875 -22.300781 23.585938 -23.679688 22.421875 -24.640625 C 21.253906 -25.609375 19.554688 -26.09375 17.328125 -26.09375 L 11.265625 -26.09375 L 11.265625 -14.890625 L 17.328125 -14.890625 C 19.554688 -14.890625 21.253906 -15.378906 22.421875 -16.359375 C 23.585938 -17.335938 24.171875 -18.71875 24.171875 -20.5 Z M 24.171875 -20.5 "/></g></g></g><g fill="#000000" fill-opacity="1"><g transform="translate(180.261832, 201.78707)"><g><path d="M 33.09375 0 L 33.046875 -19.296875 L 23.578125 -3.40625 L 20.21875 -3.40625 L 10.796875 -18.890625 L 10.796875 0 L 3.8125 0 L 3.8125 -32.171875 L 9.96875 -32.171875 L 22.015625 -12.171875 L 33.875 -32.171875 L 39.984375 -32.171875 L 40.078125 0 Z M 33.09375 0 "/></g></g></g><g fill="#000000" fill-opacity="1"><g transform="translate(224.830715, 201.78707)"><g><path d="M 28.71875 -5.96875 L 28.71875 0 L 3.8125 0 L 3.8125 -32.171875 L 28.125 -32.171875 L 28.125 -26.1875 L 11.21875 -26.1875 L 11.21875 -19.203125 L 26.140625 -19.203125 L 26.140625 -13.421875 L 11.21875 -13.421875 L 11.21875 -5.96875 Z M 28.71875 -5.96875 "/></g></g></g><g fill="#000000" fill-opacity="1"><g transform="translate(256.350635, 201.78707)"><g><path d="M 3.8125 -32.171875 L 18.421875 -32.171875 C 21.921875 -32.171875 25.007812 -31.503906 27.6875 -30.171875 C 30.363281 -28.835938 32.445312 -26.957031 33.9375 -24.53125 C 35.425781 -22.113281 36.171875 -19.296875 36.171875 -16.078125 C 36.171875 -12.867188 35.425781 -10.050781 33.9375 -7.625 C 32.445312 -5.207031 30.363281 -3.332031 27.6875 -2 C 25.007812 -0.664062 21.921875 0 18.421875 0 L 3.8125 0 Z M 18.0625 -6.109375 C 21.28125 -6.109375 23.84375 -7.003906 25.75 -8.796875 C 27.664062 -10.585938 28.625 -13.015625 28.625 -16.078125 C 28.625 -19.140625 27.664062 -21.566406 25.75 -23.359375 C 23.84375 -25.160156 21.28125 -26.0625 18.0625 -26.0625 L 11.265625 -26.0625 L 11.265625 -6.109375 Z M 18.0625 -6.109375 "/></g></g></g><g fill="#000000" fill-opacity="1"><g transform="translate(294.99234, 201.78707)"><g><path d="M 3.8125 -32.171875 L 11.265625 -32.171875 L 11.265625 0 L 3.8125 0 Z M 3.8125 -32.171875 "/></g></g></g><g fill="#000000" fill-opacity="1"><g transform="translate(310.752421, 201.78707)"><g><path d="M 25 -6.890625 L 10.0625 -6.890625 L 7.21875 0 L -0.40625 0 L 13.921875 -32.171875 L 21.28125 -32.171875 L 35.65625 0 L 27.84375 0 Z M 22.65625 -12.546875 L 17.546875 -24.859375 L 12.453125 -12.546875 Z M 22.65625 -12.546875 "/></g></g></g></svg>