<svg xmlns="http://www.w3.org/2000/svg" xmlns:xlink="http://www.w3.org/1999/xlink" width="500" zoomAndPan="magnify" viewBox="0 0 375 374.999991" height="500" preserveAspectRatio="xMidYMid meet" version="1.0"><defs><filter x="0%" y="0%" width="100%" height="100%" id="d3890df684"><feColorMatrix values="0 0 0 0 1 0 0 0 0 1 0 0 0 0 1 0 0 0 1 0" color-interpolation-filters="sRGB"/></filter><g/><mask id="b3cf726378"><g filter="url(#d3890df684)"><rect x="-37.5" width="450" fill="#000000" y="-37.499999" height="449.999989" fill-opacity="0.898"/></g></mask><clipPath id="d9e4c39bfe"><path d="M 0.402344 0.527344 L 162 0.527344 L 162 68.027344 L 0.402344 68.027344 Z M 0.402344 0.527344 " clip-rule="nonzero"/></clipPath><clipPath id="77f8f4540e"><path d="M 48 17 L 177.402344 17 L 177.402344 68.027344 L 48 68.027344 Z M 48 17 " clip-rule="nonzero"/></clipPath><clipPath id="0f26e6e89b"><rect x="0" width="178" y="0" height="181"/></clipPath><mask id="4db3759f36"><g filter="url(#d3890df684)"><rect x="-37.5" width="450" fill="#000000" y="-37.499999" height="449.999989" fill-opacity="0.898"/></g></mask><clipPath id="9ff505ca0d"><path d="M 0.410156 113.128906 L 162 113.128906 L 162 180.464844 L 0.410156 180.464844 Z M 0.410156 113.128906 " clip-rule="nonzero"/></clipPath><clipPath id="6243a46efb"><path d="M 48 113.128906 L 177.410156 113.128906 L 177.410156 164 L 48 164 Z M 48 113.128906 " clip-rule="nonzero"/></clipPath><clipPath id="48072d9b1f"><rect x="0" width="178" y="0" height="181"/></clipPath></defs><g mask="url(#b3cf726378)"><g transform="matrix(1, 0, 0, 1, 98, 94)"><g clip-path="url(#0f26e6e89b)"><g clip-path="url(#d9e4c39bfe)"><path fill="#4a6cf7" d="M 102.085938 171.753906 C 57.242188 171.753906 20.894531 135.386719 20.894531 90.527344 C 20.894531 45.667969 57.242188 9.300781 102.085938 9.300781 C 125.304688 9.300781 146.242188 19.054688 161.042969 34.683594 C 144.5625 13.875 119.082031 0.523438 90.484375 0.523438 C 40.796875 0.523438 0.519531 40.820312 0.519531 90.527344 C 0.519531 140.234375 40.796875 180.53125 90.484375 180.53125 C 119.082031 180.53125 144.5625 167.179688 161.042969 146.371094 C 146.242188 162 125.304688 171.753906 102.085938 171.753906 " fill-opacity="1" fill-rule="nonzero"/></g><g clip-path="url(#77f8f4540e)"><path fill="#ffffff" d="M 104.453125 17.640625 C 82.238281 17.640625 62.347656 27.589844 48.988281 43.273438 C 62.011719 31.082031 79.511719 23.613281 98.753906 23.613281 C 138.992188 23.613281 171.613281 56.246094 171.613281 96.5 C 171.613281 114.527344 165.066406 131.023438 154.226562 143.746094 C 168.433594 130.449219 177.308594 111.527344 177.308594 90.527344 C 177.308594 50.273438 144.691406 17.640625 104.453125 17.640625 " fill-opacity="1" fill-rule="nonzero"/></g></g></g></g><g mask="url(#4db3759f36)"><g transform="matrix(1, 0, 0, 1, 99, 100)"><g clip-path="url(#48072d9b1f)"><g clip-path="url(#9ff505ca0d)"><path fill="#4a6cf7" d="M 102.09375 9.238281 C 57.25 9.238281 20.902344 45.605469 20.902344 90.464844 C 20.902344 135.324219 57.25 171.691406 102.09375 171.691406 C 125.3125 171.691406 146.25 161.9375 161.050781 146.308594 C 144.570312 167.117188 119.089844 180.46875 90.492188 180.46875 C 40.804688 180.46875 0.527344 140.171875 0.527344 90.464844 C 0.527344 40.757812 40.804688 0.460938 90.492188 0.460938 C 119.089844 0.460938 144.570312 13.8125 161.050781 34.621094 C 146.25 18.992188 125.3125 9.238281 102.09375 9.238281 " fill-opacity="1" fill-rule="nonzero"/></g><g clip-path="url(#6243a46efb)"><path fill="#ffffff" d="M 104.460938 163.351562 C 82.246094 163.351562 62.355469 153.40625 48.996094 137.71875 C 62.019531 149.914062 79.519531 157.378906 98.761719 157.378906 C 139 157.378906 171.621094 124.746094 171.621094 84.492188 C 171.621094 66.464844 165.074219 49.96875 154.234375 37.246094 C 168.441406 50.546875 177.316406 69.46875 177.316406 90.464844 C 177.316406 130.71875 144.699219 163.351562 104.460938 163.351562 " fill-opacity="1" fill-rule="nonzero"/></g></g></g></g><g fill="#ffffff" fill-opacity="1"><g transform="translate(29.049079, 201.78707)"><g><path d="M 33.3125 -32.171875 L 33.3125 0 L 27.203125 0 L 11.171875 -19.53125 L 11.171875 0 L 3.8125 0 L 3.8125 -32.171875 L 9.96875 -32.171875 L 25.96875 -12.640625 L 25.96875 -32.171875 Z M 33.3125 -32.171875 "/></g></g></g><g fill="#ffffff" fill-opacity="1"><g transform="translate(66.863756, 201.78707)"><g><path d="M 19.390625 0.546875 C 16.054688 0.546875 13.046875 -0.171875 10.359375 -1.609375 C 7.679688 -3.046875 5.582031 -5.023438 4.0625 -7.546875 C 2.550781 -10.078125 1.796875 -12.921875 1.796875 -16.078125 C 1.796875 -19.234375 2.550781 -22.078125 4.0625 -24.609375 C 5.582031 -27.140625 7.679688 -29.125 10.359375 -30.5625 C 13.046875 -32 16.054688 -32.71875 19.390625 -32.71875 C 22.734375 -32.71875 25.734375 -32 28.390625 -30.5625 C 31.054688 -29.125 33.15625 -27.140625 34.6875 -24.609375 C 36.226562 -22.078125 37 -19.234375 37 -16.078125 C 37 -12.921875 36.226562 -10.078125 34.6875 -7.546875 C 33.15625 -5.023438 31.054688 -3.046875 28.390625 -1.609375 C 25.734375 -0.171875 22.734375 0.546875 19.390625 0.546875 Z M 19.390625 -5.796875 C 21.285156 -5.796875 23 -6.226562 24.53125 -7.09375 C 26.070312 -7.96875 27.273438 -9.1875 28.140625 -10.75 C 29.015625 -12.3125 29.453125 -14.085938 29.453125 -16.078125 C 29.453125 -18.078125 29.015625 -19.851562 28.140625 -21.40625 C 27.273438 -22.96875 26.070312 -24.1875 24.53125 -25.0625 C 23 -25.9375 21.285156 -26.375 19.390625 -26.375 C 17.492188 -26.375 15.78125 -25.9375 14.25 -25.0625 C 12.71875 -24.1875 11.515625 -22.96875 10.640625 -21.40625 C 9.765625 -19.851562 9.328125 -18.078125 9.328125 -16.078125 C 9.328125 -14.085938 9.765625 -12.3125 10.640625 -10.75 C 11.515625 -9.1875 12.71875 -7.96875 14.25 -7.09375 C 15.78125 -6.226562 17.492188 -5.796875 19.390625 -5.796875 Z M 19.390625 -5.796875 "/></g></g></g><g fill="#ffffff" fill-opacity="1"><g transform="translate(106.332524, 201.78707)"><g><path d="M 19.390625 0.546875 C 16.054688 0.546875 13.046875 -0.171875 10.359375 -1.609375 C 7.679688 -3.046875 5.582031 -5.023438 4.0625 -7.546875 C 2.550781 -10.078125 1.796875 -12.921875 1.796875 -16.078125 C 1.796875 -19.234375 2.550781 -22.078125 4.0625 -24.609375 C 5.582031 -27.140625 7.679688 -29.125 10.359375 -30.5625 C 13.046875 -32 16.054688 -32.71875 19.390625 -32.71875 C 22.734375 -32.71875 25.734375 -32 28.390625 -30.5625 C 31.054688 -29.125 33.15625 -27.140625 34.6875 -24.609375 C 36.226562 -22.078125 37 -19.234375 37 -16.078125 C 37 -12.921875 36.226562 -10.078125 34.6875 -7.546875 C 33.15625 -5.023438 31.054688 -3.046875 28.390625 -1.609375 C 25.734375 -0.171875 22.734375 0.546875 19.390625 0.546875 Z M 19.390625 -5.796875 C 21.285156 -5.796875 23 -6.226562 24.53125 -7.09375 C 26.070312 -7.96875 27.273438 -9.1875 28.140625 -10.75 C 29.015625 -12.3125 29.453125 -14.085938 29.453125 -16.078125 C 29.453125 -18.078125 29.015625 -19.851562 28.140625 -21.40625 C 27.273438 -22.96875 26.070312 -24.1875 24.53125 -25.0625 C 23 -25.9375 21.285156 -26.375 19.390625 -26.375 C 17.492188 -26.375 15.78125 -25.9375 14.25 -25.0625 C 12.71875 -24.1875 11.515625 -22.96875 10.640625 -21.40625 C 9.765625 -19.851562 9.328125 -18.078125 9.328125 -16.078125 C 9.328125 -14.085938 9.765625 -12.3125 10.640625 -10.75 C 11.515625 -9.1875 12.71875 -7.96875 14.25 -7.09375 C 15.78125 -6.226562 17.492188 -5.796875 19.390625 -5.796875 Z M 19.390625 -5.796875 "/></g></g></g><g fill="#ffffff" fill-opacity="1"><g transform="translate(145.801292, 201.78707)"><g><path d="M 24.3125 0 L 18.109375 -8.953125 L 11.265625 -8.953125 L 11.265625 0 L 3.8125 0 L 3.8125 -32.171875 L 17.734375 -32.171875 C 20.585938 -32.171875 23.0625 -31.691406 25.15625 -30.734375 C 27.257812 -29.785156 28.875 -28.4375 30 -26.6875 C 31.132812 -24.945312 31.703125 -22.882812 31.703125 -20.5 C 31.703125 -18.101562 31.128906 -16.039062 29.984375 -14.3125 C 28.835938 -12.582031 27.207031 -11.257812 25.09375 -10.34375 L 32.3125 0 Z M 24.171875 -20.5 C 24.171875 -22.300781 23.585938 -23.679688 22.421875 -24.640625 C 21.253906 -25.609375 19.554688 -26.09375 17.328125 -26.09375 L 11.265625 -26.09375 L 11.265625 -14.890625 L 17.328125 -14.890625 C 19.554688 -14.890625 21.253906 -15.378906 22.421875 -16.359375 C 23.585938 -17.335938 24.171875 -18.71875 24.171875 -20.5 Z M 24.171875 -20.5 "/></g></g></g><g fill="#ffffff" fill-opacity="1"><g transform="translate(180.261832, 201.78707)"><g><path d="M 33.09375 0 L 33.046875 -19.296875 L 23.578125 -3.40625 L 20.21875 -3.40625 L 10.796875 -18.890625 L 10.796875 0 L 3.8125 0 L 3.8125 -32.171875 L 9.96875 -32.171875 L 22.015625 -12.171875 L 33.875 -32.171875 L 39.984375 -32.171875 L 40.078125 0 Z M 33.09375 0 "/></g></g></g><g fill="#ffffff" fill-opacity="1"><g transform="translate(224.830715, 201.78707)"><g><path d="M 28.71875 -5.96875 L 28.71875 0 L 3.8125 0 L 3.8125 -32.171875 L 28.125 -32.171875 L 28.125 -26.1875 L 11.21875 -26.1875 L 11.21875 -19.203125 L 26.140625 -19.203125 L 26.140625 -13.421875 L 11.21875 -13.421875 L 11.21875 -5.96875 Z M 28.71875 -5.96875 "/></g></g></g><g fill="#ffffff" fill-opacity="1"><g transform="translate(256.350635, 201.78707)"><g><path d="M 3.8125 -32.171875 L 18.421875 -32.171875 C 21.921875 -32.171875 25.007812 -31.503906 27.6875 -30.171875 C 30.363281 -28.835938 32.445312 -26.957031 33.9375 -24.53125 C 35.425781 -22.113281 36.171875 -19.296875 36.171875 -16.078125 C 36.171875 -12.867188 35.425781 -10.050781 33.9375 -7.625 C 32.445312 -5.207031 30.363281 -3.332031 27.6875 -2 C 25.007812 -0.664062 21.921875 0 18.421875 0 L 3.8125 0 Z M 18.0625 -6.109375 C 21.28125 -6.109375 23.84375 -7.003906 25.75 -8.796875 C 27.664062 -10.585938 28.625 -13.015625 28.625 -16.078125 C 28.625 -19.140625 27.664062 -21.566406 25.75 -23.359375 C 23.84375 -25.160156 21.28125 -26.0625 18.0625 -26.0625 L 11.265625 -26.0625 L 11.265625 -6.109375 Z M 18.0625 -6.109375 "/></g></g></g><g fill="#ffffff" fill-opacity="1"><g transform="translate(294.99234, 201.78707)"><g><path d="M 3.8125 -32.171875 L 11.265625 -32.171875 L 11.265625 0 L 3.8125 0 Z M 3.8125 -32.171875 "/></g></g></g><g fill="#ffffff" fill-opacity="1"><g transform="translate(310.752421, 201.78707)"><g><path d="M 25 -6.890625 L 10.0625 -6.890625 L 7.21875 0 L -0.40625 0 L 13.921875 -32.171875 L 21.28125 -32.171875 L 35.65625 0 L 27.84375 0 Z M 22.65625 -12.546875 L 17.546875 -24.859375 L 12.453125 -12.546875 Z M 22.65625 -12.546875 "/></g></g></g></svg>