<svg xmlns="http://www.w3.org/2000/svg" xmlns:xlink="http://www.w3.org/1999/xlink" width="500" zoomAndPan="magnify" viewBox="0 0 375 374.999991" height="500" preserveAspectRatio="xMidYMid meet" version="1.0"><defs><filter x="0%" y="0%" width="100%" height="100%" id="54a8950f9d"><feColorMatrix values="0 0 0 0 1 0 0 0 0 1 0 0 0 0 1 0 0 0 1 0" color-interpolation-filters="sRGB"/></filter><g/><mask id="bd887143e8"><g filter="url(#54a8950f9d)"><rect x="-37.5" width="450" fill="#000000" y="-37.499999" height="449.999989" fill-opacity="0.898"/></g></mask><clipPath id="5dced51274"><path d="M 0 0.828125 L 341 0.828125 L 341 143.328125 L 0 143.328125 Z M 0 0.828125 " clip-rule="nonzero"/></clipPath><clipPath id="55240fb8eb"><path d="M 102 37 L 375 37 L 375 143.328125 L 102 143.328125 Z M 102 37 " clip-rule="nonzero"/></clipPath><clipPath id="a262197e3e"><rect x="0" width="375" y="0" height="372"/></clipPath><mask id="641a4785a5"><g filter="url(#54a8950f9d)"><rect x="-37.5" width="450" fill="#000000" y="-37.499999" height="449.999989" fill-opacity="0.898"/></g></mask><clipPath id="40617fa5c1"><path d="M 0 220.941406 L 345 220.941406 L 345 367.566406 L 0 367.566406 Z M 0 220.941406 " clip-rule="nonzero"/></clipPath><clipPath id="071df9a5db"><path d="M 100 220.941406 L 375 220.941406 L 375 331 L 100 331 Z M 100 220.941406 " clip-rule="nonzero"/></clipPath><clipPath id="addd29b592"><rect x="0" width="375" y="0" height="368"/></clipPath></defs><g mask="url(#bd887143e8)"><g transform="matrix(1, 0, 0, 1, 0, 3)"><g clip-path="url(#a262197e3e)"><g clip-path="url(#5dced51274)"><path fill="#4a6cf7" d="M 215.425781 363.257812 C 120.429688 363.257812 43.417969 286.28125 43.417969 191.328125 C 43.417969 96.375 120.429688 19.398438 215.425781 19.398438 C 264.621094 19.398438 308.980469 40.042969 340.332031 73.128906 C 305.417969 29.082031 251.4375 0.820312 190.847656 0.820312 C 85.589844 0.820312 0.253906 86.113281 0.253906 191.328125 C 0.253906 296.542969 85.589844 381.835938 190.847656 381.835938 C 251.4375 381.835938 305.417969 353.574219 340.332031 309.53125 C 308.980469 342.613281 264.621094 363.257812 215.425781 363.257812 " fill-opacity="1" fill-rule="nonzero"/></g><g clip-path="url(#55240fb8eb)"><path fill="#ffffff" d="M 220.445312 37.054688 C 173.382812 37.054688 131.246094 58.105469 102.933594 91.304688 C 130.527344 65.496094 167.601562 49.695312 208.371094 49.695312 C 293.621094 49.695312 362.730469 118.765625 362.730469 203.96875 C 362.730469 242.128906 348.859375 277.042969 325.898438 303.976562 C 355.988281 275.824219 374.796875 235.773438 374.796875 191.328125 C 374.796875 106.121094 305.695312 37.054688 220.445312 37.054688 " fill-opacity="1" fill-rule="nonzero"/></g></g></g></g><g mask="url(#641a4785a5)"><g transform="matrix(1, 0, 0, 1, 0, 0)"><g clip-path="url(#addd29b592)"><g clip-path="url(#40617fa5c1)"><path fill="#4a6cf7" d="M 216.054688 -5.5625 C 118.394531 -5.5625 39.226562 73.6875 39.226562 171.441406 C 39.226562 269.199219 118.394531 348.449219 216.054688 348.449219 C 266.628906 348.449219 312.230469 327.195312 344.460938 293.132812 C 308.566406 338.480469 253.074219 367.574219 190.789062 367.574219 C 82.578125 367.574219 -5.148438 279.761719 -5.148438 171.441406 C -5.148438 63.125 82.578125 -24.6875 190.789062 -24.6875 C 253.074219 -24.6875 308.566406 4.40625 344.460938 49.753906 C 312.230469 15.691406 266.628906 -5.5625 216.054688 -5.5625 " fill-opacity="1" fill-rule="nonzero"/></g><g clip-path="url(#071df9a5db)"><path fill="#ffffff" d="M 221.214844 330.273438 C 172.832031 330.273438 129.515625 308.601562 100.410156 274.417969 C 128.773438 300.988281 166.890625 317.257812 208.800781 317.257812 C 296.4375 317.257812 367.484375 246.152344 367.484375 158.429688 C 367.484375 119.140625 353.226562 83.195312 329.621094 55.46875 C 360.554688 84.453125 379.890625 125.6875 379.890625 171.441406 C 379.890625 259.167969 308.851562 330.273438 221.214844 330.273438 " fill-opacity="1" fill-rule="nonzero"/></g></g></g></g><g fill="#ffffff" fill-opacity="1"><g transform="translate(107.005932, 272.370568)"><g><path d="M 17.71875 0 L 38.390625 0 L 55.839844 -113.289062 L 61.476562 -149.53125 L 62.011719 -149.53125 L 72.214844 -125.367188 L 130.46875 0 L 151.945312 0 L 180.671875 -182.550781 L 159.730469 -179.863281 L 139.863281 -54.765625 L 137.449219 -30.605469 L 136.644531 -30.605469 L 122.953125 -64.429688 L 68.992188 -179.863281 L 45.90625 -179.863281 Z M 17.71875 0 "/></g></g></g></svg>